<svg version="1.1" xmlns="http://www.w3.org/2000/svg" viewBox="0 0 1660.0000610351562 712.6666870117188" width="1660.0000610351562" height="712.6666870117188">
  <!-- svg-source:excalidraw -->
  
  <defs>
    <style class="style-fonts">
      @font-face {
        font-family: "Virgil";
        src: url("https://excalidraw.com/Virgil.woff2");
      }
      @font-face {
        font-family: "Cascadia";
        src: url("https://excalidraw.com/Cascadia.woff2");
      }
      @font-face {
        font-family: "Assistant";
        src: url("https://excalidraw.com/Assistant-Regular.woff2");
      }
    </style>
    
  </defs>
  <rect x="0" y="0" width="1660.0000610351562" height="712.6666870117188" fill="#ffffff"></rect><g stroke-linecap="round" transform="translate(534.0000610351562 10) rotate(0 558 346.3333435058594)"><path d="M32 0 C300.19 3.45, 568.4 3.47, 1084 0 M1084 0 C1105.52 1.96, 1115.65 11.2, 1116 32 M1116 32 C1117.56 225.46, 1117.36 417.82, 1116 660.67 M1116 660.67 C1117.79 681.84, 1105.86 694.05, 1084 692.67 M1084 692.67 C785.27 697.37, 488.48 697.01, 32 692.67 M32 692.67 C9.02 691.24, -1.35 680.27, 0 660.67 M0 660.67 C-0.63 475.53, 0.01 290.73, 0 32 M0 32 C-0.92 10.13, 10.5 0.88, 32 0" stroke="#1e1e1e" stroke-width="1.5" fill="none" stroke-dasharray="8 9"></path></g><g stroke-linecap="round" transform="translate(1262.6666259765625 102.66665649414062) rotate(0 150 44.666656494140625)"><path d="M22.33 0 C103.11 -2.16, 185.88 -1.29, 277.67 0 M22.33 0 C97.55 1.76, 172.63 1.69, 277.67 0 M277.67 0 C291.01 -0.57, 301.28 7.13, 300 22.33 M277.67 0 C293.32 0.94, 299.13 6.31, 300 22.33 M300 22.33 C298.31 38.35, 297.75 52.59, 300 67 M300 22.33 C300.16 37.15, 300.42 51.83, 300 67 M300 67 C301.14 80.09, 293.86 90.65, 277.67 89.33 M300 67 C301.68 80.2, 294.58 87.11, 277.67 89.33 M277.67 89.33 C180.5 90.84, 84.84 88.48, 22.33 89.33 M277.67 89.33 C219.19 89.42, 160.16 89.7, 22.33 89.33 M22.33 89.33 C9.27 90.56, -0.12 80.21, 0 67 M22.33 89.33 C6.99 90.49, -2.13 83.16, 0 67 M0 67 C0.71 52.08, -1.28 38.38, 0 22.33 M0 67 C0.12 50.68, -1.04 36.07, 0 22.33 M0 22.33 C-1.61 6.66, 6.32 0.27, 22.33 0 M0 22.33 C0.92 9.57, 7.13 1.07, 22.33 0" stroke="#1e1e1e" stroke-width="1" fill="none"></path></g><g transform="translate(1381.8166580200195 134.83331298828125) rotate(0 30.84996795654297 12.5)"><text x="30.84996795654297" y="0" font-family="Virgil, Segoe UI Emoji" font-size="20px" fill="#1e1e1e" text-anchor="middle" style="white-space: pre;" direction="ltr" dominant-baseline="text-before-edge">Server</text></g><g stroke-linecap="round" transform="translate(606.0000610351562 83.99996948242188) rotate(0 150 44.666656494140625)"><path d="M22.33 0 C114.58 1.32, 208.59 -0.53, 277.67 0 M22.33 0 C117.15 1.42, 213.28 1.26, 277.67 0 M277.67 0 C292.7 1.65, 300.9 7.45, 300 22.33 M277.67 0 C290.96 -2.26, 298.69 6.66, 300 22.33 M300 22.33 C298.73 37.38, 299.83 55.23, 300 67 M300 22.33 C300.17 34.59, 300.95 47.93, 300 67 M300 67 C298.67 81.39, 290.73 90.2, 277.67 89.33 M300 67 C299.28 81.8, 291.58 87.67, 277.67 89.33 M277.67 89.33 C214.57 91.76, 154.19 90.43, 22.33 89.33 M277.67 89.33 C181.39 87.24, 85.73 88.1, 22.33 89.33 M22.33 89.33 C7.53 88.06, 1.66 80.71, 0 67 M22.33 89.33 C6.52 91.24, 0.33 80.68, 0 67 M0 67 C1.81 51.13, -0.83 34, 0 22.33 M0 67 C0.38 51.7, 0.05 38.26, 0 22.33 M0 22.33 C-0.47 9.36, 5.7 -0.44, 22.33 0 M0 22.33 C0.59 8.81, 5.26 2.22, 22.33 0" stroke="#1e1e1e" stroke-width="1" fill="none"></path></g><g transform="translate(720.960090637207 116.1666259765625) rotate(0 35.03997039794922 12.5)"><text x="35.03997039794922" y="0" font-family="Virgil, Segoe UI Emoji" font-size="20px" fill="#1e1e1e" text-anchor="middle" style="white-space: pre;" direction="ltr" dominant-baseline="text-before-edge">DevLog</text></g><g stroke-linecap="round" transform="translate(642.9998168945312 321.9999694824219) rotate(0 150 44.666656494140625)"><path d="M22.33 0 C89.41 1.32, 156.96 2.21, 277.67 0 M22.33 0 C98.05 -0.93, 173.85 -0.3, 277.67 0 M277.67 0 C291.76 -1.33, 299.5 5.62, 300 22.33 M277.67 0 C293.55 -0.72, 299.91 6.47, 300 22.33 M300 22.33 C300.99 31.15, 301.16 43.33, 300 67 M300 22.33 C299.43 34.5, 300.05 47.43, 300 67 M300 67 C301.57 81.97, 291.28 91, 277.67 89.33 M300 67 C298.65 80.96, 294.46 89.67, 277.67 89.33 M277.67 89.33 C213.27 91.33, 151.72 89.2, 22.33 89.33 M277.67 89.33 C202.89 91.25, 127.46 90.99, 22.33 89.33 M22.33 89.33 C9.16 88.87, 1.92 80.14, 0 67 M22.33 89.33 C6.94 89.92, 1.37 79.7, 0 67 M0 67 C-1.56 48.15, -1.55 30.58, 0 22.33 M0 67 C-1.04 53.38, -0.88 41.26, 0 22.33 M0 22.33 C-1.44 8.59, 8.39 -0.23, 22.33 0 M0 22.33 C1.28 8.21, 9.61 -0.89, 22.33 0" stroke="#1e1e1e" stroke-width="1" fill="none"></path></g><g transform="translate(761.5998458862305 354.1666259765625) rotate(0 31.39997100830078 12.5)"><text x="31.39997100830078" y="0" font-family="Virgil, Segoe UI Emoji" font-size="20px" fill="#1e1e1e" text-anchor="middle" style="white-space: pre;" direction="ltr" dominant-baseline="text-before-edge">Portal</text></g><g stroke-linecap="round" transform="translate(605.3333740234375 545.3333435058594) rotate(0 150 44.666656494140625)"><path d="M22.33 0 C75.88 -1.32, 129.97 0.33, 277.67 0 M22.33 0 C96.45 -1.18, 171.07 -1.93, 277.67 0 M277.67 0 C290.94 -0.79, 301.91 7.96, 300 22.33 M277.67 0 C294.21 0.05, 301.69 7.15, 300 22.33 M300 22.33 C298.87 34.81, 299.75 43.86, 300 67 M300 22.33 C300.96 39.57, 299.23 57.56, 300 67 M300 67 C301.22 81.32, 294.3 90.45, 277.67 89.33 M300 67 C302.1 82.65, 291.84 87.27, 277.67 89.33 M277.67 89.33 C210.42 89.97, 145.96 91.37, 22.33 89.33 M277.67 89.33 C185.02 90.88, 91.83 91.66, 22.33 89.33 M22.33 89.33 C8.22 90.33, 1.4 83.7, 0 67 M22.33 89.33 C9.74 91.39, 1.59 80.5, 0 67 M0 67 C-0.54 49.41, 1.29 34.35, 0 22.33 M0 67 C0.46 56.53, 0.72 46.74, 0 22.33 M0 22.33 C-0.72 7.77, 7.4 -0.98, 22.33 0 M0 22.33 C2.02 8.58, 9.5 -0.69, 22.33 0" stroke="#1e1e1e" stroke-width="1" fill="none"></path></g><g transform="translate(716.7034072875977 577.5) rotate(0 38.629966735839844 12.5)"><text x="38.629966735839844" y="0" font-family="Virgil, Segoe UI Emoji" font-size="20px" fill="#1e1e1e" text-anchor="middle" style="white-space: pre;" direction="ltr" dominant-baseline="text-before-edge">Swagger</text></g><g stroke-linecap="round" transform="translate(10 295.33343505859375) rotate(0 85 72.33331298828125)"><path d="M102.73 0.56 C113.61 1.19, 124.23 7.28, 133.5 13.24 C142.77 19.2, 152.53 27.9, 158.36 36.31 C164.2 44.73, 167.26 54.25, 168.5 63.75 C169.74 73.25, 169.1 84.03, 165.8 93.29 C162.49 102.56, 156.23 111.75, 148.66 119.36 C141.09 126.96, 130.8 134.76, 120.36 138.94 C109.92 143.12, 97.71 144.39, 86.01 144.44 C74.31 144.49, 60.61 142.99, 50.14 139.23 C39.67 135.47, 30.73 129.25, 23.19 121.87 C15.65 114.49, 8.6 104.5, 4.89 94.97 C1.17 85.43, -0.08 74.34, 0.89 64.68 C1.86 55.01, 5.02 45.29, 10.72 36.97 C16.42 28.65, 25.76 20.58, 35.1 14.76 C44.43 8.94, 54.72 4.14, 66.74 2.07 C78.75 0, 99.76 1.71, 107.17 2.34 C114.59 2.97, 111.63 4.64, 111.23 5.86 M86.15 1.41 C97.52 0.2, 109.96 1.38, 120.49 5.08 C131.02 8.78, 141.77 16.29, 149.32 23.62 C156.87 30.95, 162.58 39.52, 165.82 49.04 C169.06 58.56, 169.96 71, 168.75 80.74 C167.54 90.48, 164.27 99.26, 158.55 107.47 C152.84 115.67, 143.93 124.03, 134.47 129.94 C125.02 135.85, 112.85 140.82, 101.81 142.92 C90.78 145.02, 79.32 144.37, 68.26 142.53 C57.21 140.7, 45.18 137.35, 35.48 131.89 C25.78 126.44, 15.79 118.18, 10.09 109.78 C4.38 101.38, 2.09 91.48, 1.24 81.49 C0.4 71.5, 1.79 59.67, 5 49.86 C8.2 40.05, 12.97 29.9, 20.48 22.63 C28 15.36, 39.59 9.8, 50.1 6.25 C60.61 2.69, 77.7 2.18, 83.55 1.28 C89.39 0.39, 84.89 0.13, 85.18 0.89" stroke="#1e1e1e" stroke-width="1" fill="none"></path></g><g transform="translate(72.55594252004187 355.0193719271724) rotate(0 22.339981079101562 12.5)"><text x="22.339981079101562" y="0" font-family="Virgil, Segoe UI Emoji" font-size="20px" fill="#1e1e1e" text-anchor="middle" style="white-space: pre;" direction="ltr" dominant-baseline="text-before-edge">User</text></g><g mask="url(#mask-YOcuUH65Yh1D_D9EiYmWN)" stroke-linecap="round"><g transform="translate(192.98671510598427 394.88087169821404) rotate(0 199.83998595286724 100.37416717249613)"><path d="M0.71 0.72 C23.92 24.56, 73.87 110.22, 140.35 143.51 C206.83 176.8, 356.49 191.05, 399.58 200.48 M-0.37 0.05 C23.13 24.03, 76.19 111.3, 142.71 144.9 C209.24 178.5, 356.09 192.33, 398.76 201.65" stroke="#1e1e1e" stroke-width="1" fill="none"></path></g><g transform="translate(192.98671510598427 394.88087169821404) rotate(0 199.83998595286724 100.37416717249613)"><path d="M374.2 206.32 C385.05 203.23, 393.05 202.33, 398.76 201.65 M374.2 206.32 C381.49 204.79, 388.7 203.04, 398.76 201.65" stroke="#1e1e1e" stroke-width="1" fill="none"></path></g><g transform="translate(192.98671510598427 394.88087169821404) rotate(0 199.83998595286724 100.37416717249613)"><path d="M376.95 189.44 C386.78 193.01, 393.7 198.75, 398.76 201.65 M376.95 189.44 C383.37 192.58, 389.81 195.51, 398.76 201.65" stroke="#1e1e1e" stroke-width="1" fill="none"></path></g></g><mask id="mask-YOcuUH65Yh1D_D9EiYmWN"><rect x="0" y="0" fill="#fff" width="692.6666870117188" height="695.6292060432063"></rect><rect x="257.67006683349615" y="526.1666870117186" fill="#000" width="152.6598663330078" height="25" opacity="1"></rect></mask><g transform="translate(257.6700668334961 526.1666870117188) rotate(0 134.91918569601512 -30.4317635707676)"><text x="76.3299331665039" y="0" font-family="Virgil, Segoe UI Emoji" font-size="20px" fill="#1e1e1e" text-anchor="middle" style="white-space: pre;" direction="ltr" dominant-baseline="text-before-edge">Browser Access</text></g><g mask="url(#mask-W4DBzD37uhb_zFB46zJ30)" stroke-linecap="round"><g transform="translate(192.03192620355196 331.8279901441856) rotate(0 196.00123143437355 -101.6224738356596)"><path d="M0.06 0.25 C28.58 -22.84, 106.46 -105.04, 171.98 -139.06 C237.5 -173.07, 356.44 -193.2, 393.17 -203.85 M-1.36 -0.66 C27.47 -23.55, 108.62 -104.11, 174.35 -137.81 C240.08 -171.51, 356.61 -192.2, 393.02 -202.86" stroke="#1e1e1e" stroke-width="1" fill="none"></path></g><g transform="translate(192.03192620355196 331.8279901441856) rotate(0 196.00123143437355 -101.6224738356596)"><path d="M372.22 -188.99 C380.46 -195.27, 386.87 -197.4, 393.02 -202.86 M372.22 -188.99 C378.31 -192.07, 381.57 -196.93, 393.02 -202.86" stroke="#1e1e1e" stroke-width="1" fill="none"></path></g><g transform="translate(192.03192620355196 331.8279901441856) rotate(0 196.00123143437355 -101.6224738356596)"><path d="M368.17 -205.61 C377.86 -205.68, 385.77 -201.62, 393.02 -202.86 M368.17 -205.61 C375.33 -204.55, 379.59 -205.27, 393.02 -202.86" stroke="#1e1e1e" stroke-width="1" fill="none"></path></g></g><mask id="mask-W4DBzD37uhb_zFB46zJ30"><rect x="0" y="0" fill="#fff" width="684.0343890722991" height="635.0729378155048"></rect><rect x="288.33675384521484" y="180.8333740234375" fill="#000" width="152.6598663330078" height="25" opacity="1"></rect></mask><g transform="translate(288.33675384521484 180.8333740234375) rotate(0 99.59962633218211 49.1937716495045)"><text x="76.3299331665039" y="0" font-family="Virgil, Segoe UI Emoji" font-size="20px" fill="#1e1e1e" text-anchor="middle" style="white-space: pre;" direction="ltr" dominant-baseline="text-before-edge">Browser Access</text></g><g mask="url(#mask-YGUIgyeOpvN_8x-A9pd2Q)" stroke-linecap="round"><g transform="translate(629.333251953125 364.4505232695748) rotate(0 -218.93816347534835 2.4567853783256055)"><path d="M0.59 -0.64 C-72.35 0.35, -363.55 5.04, -436.72 6.04 M-0.56 1.64 C-73.63 2.31, -363.9 4.24, -437.06 4.5" stroke="#1e1e1e" stroke-width="1" fill="none"></path></g><g transform="translate(629.333251953125 364.4505232695748) rotate(0 -218.93816347534835 2.4567853783256055)"><path d="M-413.61 -4.17 C-423.47 1.13, -429.34 1.54, -437.06 4.5 M-413.61 -4.17 C-421.07 -0.28, -430 1.15, -437.06 4.5" stroke="#1e1e1e" stroke-width="1" fill="none"></path></g><g transform="translate(629.333251953125 364.4505232695748) rotate(0 -218.93816347534835 2.4567853783256055)"><path d="M-413.52 12.93 C-423.43 11.81, -429.34 5.8, -437.06 4.5 M-413.52 12.93 C-421.1 11.1, -430.06 6.82, -437.06 4.5" stroke="#1e1e1e" stroke-width="1" fill="none"></path></g></g><mask id="mask-YGUIgyeOpvN_8x-A9pd2Q"><rect x="0" y="0" fill="#fff" width="1167.2095789038217" height="469.364094026226"></rect><rect x="324.40516690795243" y="354.40730864790055" fill="#000" width="171.97984313964844" height="25" opacity="1"></rect></mask><g transform="translate(324.4051669079523 354.40730864790044) rotate(0 86.69524414141665 12.742288411781146)"><text x="85.98992156982422" y="0" font-family="Virgil, Segoe UI Emoji" font-size="20px" fill="#1e1e1e" text-anchor="middle" style="white-space: pre;" direction="ltr" dominant-baseline="text-before-edge">Credentials Input</text></g><g mask="url(#mask-cSsFWIYUFBAAZs4PeifUP)" stroke-linecap="round"><g transform="translate(750.666748046875 185.3333740234375) rotate(0 21.440796721493598 60.666656494140625)"><path d="M0.67 1.05 C6.15 9.53, 25.44 31.88, 32.4 51.86 C39.36 71.84, 40.49 109.36, 42.42 120.93 M-0.43 0.56 C4.97 9.09, 24.69 32.72, 31.66 52.97 C38.64 73.21, 39.83 110.47, 41.42 122.04" stroke="#1e1e1e" stroke-width="1" fill="none"></path></g><g transform="translate(750.666748046875 185.3333740234375) rotate(0 21.440796721493598 60.666656494140625)"><path d="M30.75 99.43 C35.46 105.91, 35.12 110.35, 41.42 122.04 M30.75 99.43 C33.96 106.34, 37.47 112.18, 41.42 122.04" stroke="#1e1e1e" stroke-width="1" fill="none"></path></g><g transform="translate(750.666748046875 185.3333740234375) rotate(0 21.440796721493598 60.666656494140625)"><path d="M47.78 97.86 C48.08 104.84, 43.32 109.69, 41.42 122.04 M47.78 97.86 C46.46 105.18, 45.44 111.44, 41.42 122.04" stroke="#1e1e1e" stroke-width="1" fill="none"></path></g></g><mask id="mask-cSsFWIYUFBAAZs4PeifUP"><rect x="0" y="0" fill="#fff" width="893.5483414898622" height="406.66668701171875"></rect><rect x="693.1668243408203" y="225.50006103515625" fill="#000" width="178.99984741210938" height="25" opacity="1"></rect></mask><g transform="translate(693.1668243408203 225.50006103515625) rotate(0 78.4949245757141 21.131583118140696)"><text x="89.49992370605469" y="0" font-family="Virgil, Segoe UI Emoji" font-size="20px" fill="#1e1e1e" text-anchor="middle" style="white-space: pre;" direction="ltr" dominant-baseline="text-before-edge">Challenge Redirect</text></g><g mask="url(#mask-i9brmRpYNNCr_RPOldxpt)" stroke-linecap="round"><g transform="translate(754.0001220703125 530.0000610351562) rotate(0 25.332467984201003 -53.333343505859375)"><path d="M0.54 0.37 C5.98 -7.09, 24.77 -25.85, 33.26 -43.66 C41.75 -61.46, 48.74 -96, 51.49 -106.48 M-0.64 -0.48 C4.59 -7.25, 23.64 -24.86, 32.27 -42.29 C40.9 -59.72, 48.28 -94.55, 51.16 -105.06" stroke="#1e1e1e" stroke-width="1" fill="none"></path></g><g transform="translate(754.0001220703125 530.0000610351562) rotate(0 25.332467984201003 -53.333343505859375)"><path d="M53.76 -80.2 C53.25 -88.98, 51.18 -96.14, 51.16 -105.06 M53.76 -80.2 C53.65 -88.29, 52.4 -96.1, 51.16 -105.06" stroke="#1e1e1e" stroke-width="1" fill="none"></path></g><g transform="translate(754.0001220703125 530.0000610351562) rotate(0 25.332467984201003 -53.333343505859375)"><path d="M37.17 -84.34 C42.47 -91.75, 46.19 -97.47, 51.16 -105.06 M37.17 -84.34 C42.27 -91.15, 46.26 -97.64, 51.16 -105.06" stroke="#1e1e1e" stroke-width="1" fill="none"></path></g></g><mask id="mask-i9brmRpYNNCr_RPOldxpt"><rect x="0" y="0" fill="#fff" width="904.6650580387145" height="736.666748046875"></rect><rect x="697.8335723876953" y="474.16668701171875" fill="#000" width="178.99984741210938" height="25" opacity="1"></rect></mask><g transform="translate(697.8335723876953 474.16668701171875) rotate(0 81.59176101958155 2.7798904884606372)"><text x="89.49992370605469" y="0" font-family="Virgil, Segoe UI Emoji" font-size="20px" fill="#1e1e1e" text-anchor="middle" style="white-space: pre;" direction="ltr" dominant-baseline="text-before-edge">Challenge Redirect</text></g><g mask="url(#mask-U_xjgvslAtLYipLLQNqig)" stroke-linecap="round"><g transform="translate(955.3333740234375 364.6633281351054) rotate(0 146.50494056059074 -88.05596468429218)"><path d="M0.65 -0.52 C29.83 -10.69, 126.75 -32.61, 175.52 -61.9 C224.28 -91.2, 273.47 -157.33, 293.24 -176.3 M-0.47 1.81 C28.47 -8.06, 125.47 -30.83, 174.32 -60.32 C223.16 -89.8, 273.09 -156.06, 292.59 -175.09" stroke="#1e1e1e" stroke-width="1" fill="none"></path></g><g transform="translate(955.3333740234375 364.6633281351054) rotate(0 146.50494056059074 -88.05596468429218)"><path d="M283.2 -151.92 C285.66 -160.57, 289.85 -167.18, 292.59 -175.09 M283.2 -151.92 C285.07 -157.76, 288.64 -164.22, 292.59 -175.09" stroke="#1e1e1e" stroke-width="1" fill="none"></path></g><g transform="translate(955.3333740234375 364.6633281351054) rotate(0 146.50494056059074 -88.05596468429218)"><path d="M270.5 -163.38 C277.15 -168.24, 285.6 -171, 292.59 -175.09 M270.5 -163.38 C276.08 -166, 283.26 -169.21, 292.59 -175.09" stroke="#1e1e1e" stroke-width="1" fill="none"></path></g></g><mask id="mask-U_xjgvslAtLYipLLQNqig"><rect x="0" y="0" fill="#fff" width="1348.343255144619" height="640.7752575036898"></rect><rect x="1043.8234558105469" y="290.16668701171875" fill="#000" width="175.01983642578125" height="25" opacity="1"></rect></mask><g transform="translate(1043.8234558105469 290.16668701171875) rotate(0 57.89101176443546 -12.748297220527093)"><text x="87.50991821289062" y="0" font-family="Virgil, Segoe UI Emoji" font-size="20px" fill="#1e1e1e" text-anchor="middle" style="white-space: pre;" direction="ltr" dominant-baseline="text-before-edge">Token Verification</text></g><g mask="url(#mask-uQN2gtUMzZyzw93_iuxDD)" stroke-linecap="round"><g transform="translate(920 550.402828273433) rotate(0 234.0211720332254 -170.51320959658585)"><path d="M0.3 -0.44 C50 -25.4, 220.7 -92.19, 298.58 -148.81 C376.46 -205.42, 439.2 -308.04, 467.59 -340.15 M-1.01 -1.72 C49.06 -27.08, 222.97 -93.72, 300.9 -150.44 C378.83 -207.16, 438.47 -310.35, 466.58 -342.03" stroke="#1e1e1e" stroke-width="1" fill="none"></path></g><g transform="translate(920 550.402828273433) rotate(0 234.0211720332254 -170.51320959658585)"><path d="M459.33 -318.11 C460.79 -327.24, 465.47 -334.61, 466.58 -342.03 M459.33 -318.11 C461.46 -327.66, 465.5 -335.6, 466.58 -342.03" stroke="#1e1e1e" stroke-width="1" fill="none"></path></g><g transform="translate(920 550.402828273433) rotate(0 234.0211720332254 -170.51320959658585)"><path d="M445.65 -328.36 C451.68 -334.16, 460.85 -338.16, 466.58 -342.03 M445.65 -328.36 C452.95 -334.04, 462.1 -338.16, 466.58 -342.03" stroke="#1e1e1e" stroke-width="1" fill="none"></path></g></g><mask id="mask-uQN2gtUMzZyzw93_iuxDD"><rect x="0" y="0" fill="#fff" width="1488.0423440664508" height="991.4292474666047"></rect><rect x="1119.6334609985352" y="375.666748046875" fill="#000" width="199.3998260498047" height="50" opacity="1"></rect></mask><g transform="translate(1119.6334609985352 375.666748046875) rotate(0 33.656333932963435 3.496924919022547)"><text x="99.69991302490234" y="0" font-family="Virgil, Segoe UI Emoji" font-size="20px" fill="#1e1e1e" text-anchor="middle" style="white-space: pre;" direction="ltr" dominant-baseline="text-before-edge">Token Verification &amp;</text><text x="99.69991302490234" y="25" font-family="Virgil, Segoe UI Emoji" font-size="20px" fill="#1e1e1e" text-anchor="middle" style="white-space: pre;" direction="ltr" dominant-baseline="text-before-edge">REST API Access</text></g><g mask="url(#mask-ge2q4YWaSDTpH82phGbfi)" stroke-linecap="round"><g transform="translate(923.3333740234375 126) rotate(0 163.33331298828125 12.666671752929688)"><path d="M-1.09 -0.23 C28.27 -1.01, 122.08 -10.19, 176.84 -5.08 C231.61 0.03, 302.59 24.55, 327.48 30.43 M0.54 -1.4 C30.19 -1.97, 124.51 -8.72, 178.95 -3.76 C233.38 1.19, 302.6 22.45, 327.14 28.31" stroke="#1e1e1e" stroke-width="1" fill="none"></path></g><g transform="translate(923.3333740234375 126) rotate(0 163.33331298828125 12.666671752929688)"><path d="M302.25 30.6 C310.73 28.08, 319.3 30.56, 327.14 28.31 M302.25 30.6 C310.91 30.17, 319.33 29.51, 327.14 28.31" stroke="#1e1e1e" stroke-width="1" fill="none"></path></g><g transform="translate(923.3333740234375 126) rotate(0 163.33331298828125 12.666671752929688)"><path d="M306.61 14.06 C313.48 17.39, 320.49 25.76, 327.14 28.31 M306.61 14.06 C313.75 19.2, 320.7 24.09, 327.14 28.31" stroke="#1e1e1e" stroke-width="1" fill="none"></path></g></g><mask id="mask-ge2q4YWaSDTpH82phGbfi"><rect x="0" y="0" fill="#fff" width="1350" height="260.6666564941406"></rect><rect x="1013.8234558105469" y="108.83334350585938" fill="#000" width="175.01983642578125" height="25" opacity="1"></rect></mask><g transform="translate(1013.8234558105469 108.83334350585938) rotate(0 72.70511304847889 29.070831502867577)"><text x="87.50991821289062" y="0" font-family="Virgil, Segoe UI Emoji" font-size="20px" fill="#1e1e1e" text-anchor="middle" style="white-space: pre;" direction="ltr" dominant-baseline="text-before-edge">Token Verification</text></g></svg>